HIERARCHY
ROOT Hips
{
	OFFSET -3.958830 18.904000 13.208200
	CHANNELS 6 Xposition Yposition Zposition Zrotation Yrotation Xrotation 
	JOINT LHipJoint
	{
		OFFSET 0.000000 0.000000 0.000000
		CHANNELS 3 Zrotation Yrotation Xrotation
		JOINT LeftUpLeg
		{
			OFFSET 1.800000 -1.400000 0.085000
			CHANNELS 3 Zrotation Yrotation Xrotation
			JOINT LeftLeg
			{
				OFFSET 2.215000 -6.000000 0.000000
				CHANNELS 3 Zrotation Yrotation Xrotation
				JOINT LeftFoot
				{
					OFFSET 2.500000 -6.900000 0.000000
					CHANNELS 3 Zrotation Yrotation Xrotation
					JOINT LeftToeBase
					{
						OFFSET 0.200000 -0.500000 1.950000
						CHANNELS 3 Zrotation Yrotation Xrotation
						End Site
						{
							OFFSET 0.000000 0.000000 0.000000
						}
					}
				}
			}
		}
	}
	JOINT RHipJoint
	{
		OFFSET 0.000000 0.000000 0.000000
		CHANNELS 3 Zrotation Yrotation Xrotation
		JOINT RightUpLeg
		{
			OFFSET -1.800000 -1.400000 0.085000
			CHANNELS 3 Zrotation Yrotation Xrotation
			JOINT RightLeg
			{
				OFFSET -2.215000 -6.000000 0.000000
				CHANNELS 3 Zrotation Yrotation Xrotation
				JOINT RightFoot
				{
					OFFSET -2.500000 -6.900000 0.000000
					CHANNELS 3 Zrotation Yrotation Xrotation
					JOINT RightToeBase
					{
						OFFSET -0.200000 -0.500000 1.950000
						CHANNELS 3 Zrotation Yrotation Xrotation
						End Site
						{
							OFFSET 0.000000 0.000000 0.000000
						}
					}
				}
			}
		}
	}
	JOINT LowerBack
	{
		OFFSET 0.000000 0.000000 0.000000
		CHANNELS 3 Zrotation Yrotation Xrotation
		JOINT Spine
		{
			OFFSET -0.087000 1.940000 -0.288900
			CHANNELS 3 Zrotation Yrotation Xrotation
			JOINT Spine1
			{
				OFFSET 0.000000 1.950000 0.060000
				CHANNELS 3 Zrotation Yrotation Xrotation
				JOINT Neck
				{
					OFFSET 0.000000 0.000000 0.000000
					CHANNELS 3 Zrotation Yrotation Xrotation
					JOINT Neck1
					{
						OFFSET 0.000000 1.600000 0.340000
						CHANNELS 3 Zrotation Yrotation Xrotation
						JOINT Head
						{
							OFFSET 0.000000 1.667000 -0.240000
							CHANNELS 3 Zrotation Yrotation Xrotation
							End Site
							{
								OFFSET 0.000000 0.000000 0.000000
							}
						}
					}
				}
				JOINT LeftShoulder
				{
					OFFSET 0.000000 0.000000 0.000000
					CHANNELS 3 Zrotation Yrotation Xrotation
					JOINT LeftArm
					{
						OFFSET 2.700000 1.550000 -0.730000
						CHANNELS 3 Zrotation Yrotation Xrotation
						JOINT LeftForeArm
						{
							OFFSET 5.450000 0.000000 0.000000
							CHANNELS 3 Zrotation Yrotation Xrotation
							JOINT LeftHand
							{
								OFFSET 3.450000 0.000000 0.000000
								CHANNELS 3 Zrotation Yrotation Xrotation
								JOINT LeftHandIndex1
								{
									OFFSET 0.750000 0.000000 0.000000
									CHANNELS 3 Zrotation Yrotation Xrotation
									End Site
									{
										OFFSET 0.000000 0.000000 0.000000
									}
								}
							}
						}
					}
				}
				JOINT RightShoulder
				{
					OFFSET 0.000000 0.000000 0.000000
					CHANNELS 3 Zrotation Yrotation Xrotation
					JOINT RightArm
					{
						OFFSET -2.700000 1.550000 -0.730000
						CHANNELS 3 Zrotation Yrotation Xrotation
						JOINT RightForeArm
						{
							OFFSET -5.450000 0.000000 0.000000
							CHANNELS 3 Zrotation Yrotation Xrotation
							JOINT RightHand
							{
								OFFSET -3.450000 0.000000 0.000000
								CHANNELS 3 Zrotation Yrotation Xrotation
								JOINT RightHandIndex1
								{
									OFFSET -0.750000 0.000000 0.000000
									CHANNELS 3 Zrotation Yrotation Xrotation
									End Site
									{
										OFFSET 0.000000 0.000000 0.000000
									}
								}
							}
						}
					}
				}
			}
		}
	}
}
MOTION
Frames: 10
Frame Time: 0.016667
0.497930 16.466400 -2.185260 10.101339 44.568402 -5.194114 -14.964657 12.531510 2.153537 19.239753 -0.025730 5.649200 -10.559160 10.261867 18.837153 0.469233 6.525309 2.291243 0.348790 0.264100 0.135930 18.538401 -10.575379 3.759650 -32.721192 -4.125032 -24.956648 21.843528 -12.662501 20.998084 -0.533741 -6.277849 1.864936 0.153270 -0.149580 -0.046630 -6.056144 -0.073872 -8.422234 17.856403 -2.458780 11.997600 -15.412161 1.119182 9.483677 2.223962 -6.161599 -12.376514 -21.212513 -4.142631 58.866398 0.750750 -17.460670 -6.376400 -39.787597 -20.439289 5.642403 -33.616988 -19.827229 -5.296468 24.639820 -72.064839 -18.135309 -3.088568 2.764006 0.285460 -0.263370 0.125950 0.096620 34.418378 24.634993 11.965006 43.783905 7.114628 0.405265 0.332372 6.336707 0.184131 2.620587 -1.197898 0.040750 0.172010 -0.063680 -0.000230 
0.440170 16.454420 -2.100460 9.676967 44.748145 -5.213236 -14.989178 12.576070 2.143106 20.089482 -0.323759 5.044806 -10.175337 10.300046 19.423928 0.463572 6.556334 2.274265 0.349560 0.275210 0.127230 18.508443 -10.533095 3.765940 -32.093168 -3.957123 -25.529914 22.459076 -13.151513 22.075586 -0.560542 -6.383857 1.834164 0.158940 -0.142100 -0.052950 -5.949845 -0.210166 -8.421149 17.099232 -2.542377 12.442797 -14.863178 1.010192 9.377829 1.925157 -6.380571 -12.084874 -21.772256 -4.312946 57.695895 1.566590 -17.694850 -7.036700 -38.636081 -20.010558 5.168527 -34.595787 -20.560091 -5.007141 29.977675 -73.859706 -22.377328 -3.057098 2.634697 0.280720 -0.265800 0.125950 0.102280 33.909167 24.082682 11.837968 44.718340 5.986931 -0.119084 0.174957 6.729175 0.136257 2.616248 -1.198291 0.041130 0.181720 -0.066430 0.008610 
0.337140 16.471170 -1.966780 8.918052 44.905795 -5.308639 -15.027598 12.704383 2.153486 21.010944 -0.823021 3.642484 -9.456826 10.411072 21.071144 0.430592 6.629352 2.230734 0.341480 0.273280 0.116090 18.430028 -10.572896 3.723138 -30.269967 -3.460308 -26.347963 22.518114 -13.551015 23.688390 -0.570322 -6.412518 1.838634 0.163660 -0.123180 -0.055460 -5.763890 -0.354869 -8.425047 15.506807 -2.531121 13.630487 -14.043187 0.983675 8.978251 1.505774 -6.063535 -11.566131 -21.085583 -4.926235 56.508534 2.314130 -17.536680 -7.123850 -37.489582 -19.496629 4.437203 -35.134316 -21.350784 -4.674395 42.265617 -77.710087 -32.788673 -2.993401 2.272771 0.275720 -0.250400 0.115710 0.103700 33.650404 22.924172 11.550021 45.795599 4.001094 -0.909331 -0.078024 6.747264 0.089049 2.602560 -1.198425 0.030890 0.190510 -0.060280 0.008450 
0.223970 16.517970 -1.814230 8.400978 44.885359 -5.119252 -15.070182 12.888332 2.143283 21.103242 -1.389004 1.696537 -8.356674 10.638504 24.378387 0.400065 6.793010 2.151909 0.329460 0.258960 0.109330 18.335733 -10.679049 3.642867 -27.976620 -2.911425 -26.829039 21.866528 -13.422415 24.568925 -0.543155 -6.273682 1.898115 0.166510 -0.096420 -0.051550 -5.537535 -0.502619 -8.372081 13.594748 -2.325000 14.858254 -13.059380 1.131598 8.490481 0.982212 -5.727788 -10.799353 -20.209712 -5.899036 54.494987 2.892790 -17.427140 -7.137670 -36.062531 -18.532355 3.280309 -35.557035 -22.908710 -3.648865 61.362070 -80.189213 -48.248072 -2.841016 1.350500 0.265350 -0.226240 0.097000 0.101610 33.318329 21.223702 11.171770 46.721531 1.508156 -1.821457 -0.745764 6.565249 0.039538 2.591141 -1.203678 0.016630 0.197150 -0.049570 0.005390 
0.091870 16.579320 -1.642210 8.901262 44.644576 -4.416104 -15.163025 13.152151 2.214529 20.182155 -2.159730 -0.890801 -7.196821 11.104252 29.709147 0.390604 7.186522 1.979385 0.334690 0.264490 0.116390 18.171939 -10.811089 3.519785 -25.478615 -2.379923 -26.951672 20.236510 -12.810052 25.177160 -0.494885 -5.964959 2.012640 0.187520 -0.078770 -0.053910 -5.047226 -0.821078 -8.324946 9.674838 -1.727497 16.892030 -11.251671 1.664973 8.401790 0.324862 -4.867027 -10.149681 -18.304536 -7.206781 52.279742 4.581540 -17.232880 -8.455360 -33.859357 -17.247111 2.435805 -35.823459 -26.509664 1.449911 86.316408 -75.763664 -65.874195 -2.787040 0.009353 0.282130 -0.216320 0.092210 0.098930 32.647999 19.439025 10.670142 47.845339 -1.137716 -3.133211 -1.716255 7.238831 -0.062997 2.556640 -1.193481 -0.008750 0.219030 -0.041790 -0.008050 
-0.046540 16.634870 -1.490270 9.740567 44.335747 -3.222087 -15.263553 13.410144 2.353634 17.816878 -3.194132 -4.018667 -5.573340 11.257866 35.846098 0.419973 7.670067 1.786083 0.340980 0.272790 0.126570 18.016134 -10.914000 3.353499 -22.829757 -1.900403 -27.398371 17.626284 -11.795374 25.684358 -0.413002 -5.520413 2.174710 0.209330 -0.063710 -0.049020 -4.531737 -1.253316 -8.230338 5.617373 -1.241290 18.877597 -9.841784 2.000732 8.405863 -0.341108 -3.877109 -9.616235 -16.136775 -8.875812 48.951539 5.561210 -16.969270 -9.682080 -31.110821 -16.397614 2.000840 -34.489573 -29.885039 6.506861 101.506087 -67.872069 -77.439899 -3.229555 0.882648 0.286020 -0.197940 0.084610 0.095800 31.345209 17.944027 10.331624 49.432261 -3.733262 -4.732968 -2.861027 8.947982 -0.271834 2.505855 -1.202428 -0.027210 0.231450 -0.036900 -0.021190 
-0.209860 16.697740 -1.374360 9.903964 42.666234 -2.754235 -15.316179 13.462271 2.668065 15.471174 -4.591823 -6.736183 -5.531940 12.077829 41.977674 0.580080 8.470690 1.497024 0.372670 0.321170 0.146020 17.934914 -10.968144 3.149528 -19.327737 -1.148568 -28.149345 14.633124 -10.527030 26.395837 -0.349328 -4.977029 2.377869 0.237080 -0.075740 -0.048350 -4.185004 -1.466481 -8.225023 2.595407 -0.698258 21.987806 -8.664423 2.450584 7.823985 -1.137691 -3.224925 -9.344660 -14.611258 -9.967276 46.326889 7.348520 -16.707230 -11.803390 -28.742299 -16.836389 1.027577 -31.201424 -32.547266 7.480656 108.351444 -62.210230 -80.552040 -3.349731 1.712672 0.296850 -0.208670 0.103980 0.100990 30.612277 17.536064 10.696036 49.607892 -6.448527 -5.341106 -2.509210 7.480195 -0.130542 2.509493 -1.197047 -0.021470 0.237040 -0.054330 -0.024000 
-0.384600 16.756250 -1.297380 9.794146 40.507844 -2.263970 -15.377217 13.271721 3.128683 13.451883 -6.341503 -9.771027 -7.470176 13.992853 47.733551 0.827542 9.595744 1.118196 0.412970 0.375460 0.176660 17.906172 -10.863008 2.942421 -15.799857 -0.331318 -29.055540 11.795402 -9.164601 26.678144 -0.294630 -4.422957 2.579276 0.271690 -0.091180 -0.036970 -3.834651 -1.598060 -8.257414 -0.520782 0.277868 24.989909 -7.115971 3.168995 7.456227 -1.898907 -1.855012 -8.887929 -11.360639 -11.860973 43.157008 8.835730 -16.479560 -14.220080 -25.736457 -17.526140 -0.256259 -26.851677 -35.449454 7.411913 110.171463 -57.350460 -76.845449 -3.330461 2.026609 0.307100 -0.215230 0.125750 0.104660 29.140271 17.024660 11.058801 49.342512 -8.528119 -5.632244 -1.990673 6.051573 -0.012914 2.509303 -1.200733 -0.013210 0.237840 -0.073070 -0.030840 
-0.557040 16.800740 -1.249140 9.207998 36.961818 -2.104147 -15.435180 12.857993 3.752931 12.544925 -8.297536 -12.603267 -12.604267 18.052965 52.443422 1.223389 11.176498 0.635948 0.449470 0.428530 0.204540 17.939609 -10.546499 2.735648 -11.819889 0.726899 -29.986539 9.186180 -7.760904 26.639468 -0.247184 -3.867191 2.790511 0.308800 -0.093300 -0.022480 -3.510641 -1.760066 -8.357149 -3.496897 1.324510 27.777000 -5.502207 3.825000 7.263156 -2.778294 -0.733419 -8.516786 -8.338371 -12.533785 39.571228 9.935370 -15.072090 -16.344530 -22.461163 -18.190364 -1.579280 -20.506064 -37.735262 5.707372 109.655857 -51.183698 -68.418116 -3.329805 2.237722 0.311330 -0.206890 0.140240 0.111340 27.555303 16.707380 11.523667 47.840835 -9.953552 -5.528214 -2.282504 4.786139 0.071675 2.502576 -1.219283 -0.011240 0.241140 -0.089770 -0.040080 
-0.708360 16.835250 -1.197240 8.591919 33.394224 -2.144227 -15.501494 12.407860 4.397542 12.115589 -10.131790 -14.694401 -19.938829 22.994460 54.265231 1.655305 12.611737 0.245420 0.471830 0.466690 0.232860 17.974245 -10.198266 2.506144 -8.190800 1.403842 -29.644031 6.939309 -6.405756 25.438041 -0.197700 -3.312377 3.010658 0.329970 -0.101720 -0.006850 -3.214165 -1.955885 -8.452216 -6.440134 2.654624 29.771271 -3.861466 4.591631 7.523460 -3.502482 0.580119 -8.602494 -5.086399 -12.723676 36.337758 9.952960 -13.313500 -17.588460 -18.858945 -19.238531 -2.822069 -12.578828 -39.578678 2.280874 104.098222 -45.881508 -55.791579 -3.357880 2.345224 0.305560 -0.190700 0.151870 0.110010 25.319459 16.756893 12.582505 46.490118 -12.402565 -5.649324 -1.716621 4.297044 0.059663 2.486343 -1.233487 -0.003980 0.230640 -0.106180 -0.052340 
